PathFileType	4	(X/Y/Z)	C:/Users/opensim2020/Desktop/walking_exp_matlab/subject02_walking14_straight_04.trc																																																																																																																									
DataRate	CameraRate	NumFrames	NumMarkers	Units	OrigDataRate	OrigDataStartFrame	OrigNumFrames																																																																																																																					
100	100	8	41	mm	100	1729	137																																																																																																																					
Frame#	Time	LFHD			RFHD			LBHD			RBHD			C7			T10			CLAV			STRN			RBAK			LSHO			LUPA			LELB			LFRM			LWRA			LWRB			LFIN			RSHO			RUPA			RELB			RFRM			RWRA			RWRB			RFIN			LASI			RASI			LPSI			RPSI			LTHI			LKNE			LTIB			LANK			LHEE			LTOE			RTHI			RKNE			RTIB			RANK			RHEE			RTOE			*39			*40		
		X1	Y1	Z1	X2	Y2	Z2	X3	Y3	Z3	X4	Y4	Z4	X5	Y5	Z5	X6	Y6	Z6	X7	Y7	Z7	X8	Y8	Z8	X9	Y9	Z9	X10	Y10	Z10	X11	Y11	Z11	X12	Y12	Z12	X13	Y13	Z13	X14	Y14	Z14	X15	Y15	Z15	X16	Y16	Z16	X17	Y17	Z17	X18	Y18	Z18	X19	Y19	Z19	X20	Y20	Z20	X21	Y21	Z21	X22	Y22	Z22	X23	Y23	Z23	X24	Y24	Z24	X25	Y25	Z25	X26	Y26	Z26	X27	Y27	Z27	X28	Y28	Z28	X29	Y29	Z29	X30	Y30	Z30	X31	Y31	Z31	X32	Y32	Z32	X33	Y33	Z33	X34	Y34	Z34	X35	Y35	Z35	X36	Y36	Z36	X37	Y37	Z37	X38	Y38	Z38	X39	Y39	Z39	X40	Y40	Z40	X41	Y41	Z41
																																																																																																																												
52	0.51	-216.62357	1727.13489	981.81573	-223.32591	1713.47681	1125.41345	-339.5412	1640.99988	969.04663	-358.27249	1624.86633	1112.12024	-384.10129	1501.31921	1034.36499	-433.46268	1229.52576	1040.76196	-241.76466	1438.18469	1042.21191	-188.03203	1266.0946	1055.14148	-445.17114	1327.19189	1089.14441	-283.52786	1480.27417	867.52905	-237.43922	1290.755	782.33832	-190.67094	1153.15759	770.30066	-97.42181	1065.86938	815.43958	-4.66247	1029.73242	912.00012	-13.74301	994.12384	868.60675	41.92527	973.68384	894.58423	-331.67197	1468.47046	1229.18677	-406.89532	1289.73547	1300.3092	-427.57886	1146.61292	1319.63647	-432.63977	1026.96069	1342.91541	-419.83264	889.63989	1326.91333	-466.48145	901.8056	1357.84045	-455.19235	827.53369	1355.98853	-228.40253	961.25616	915.55725	-216.98814	957.85669	1171.27295	-430.59552	1011.96643	1004.4942	-433.55847	1011.84674	1115.63025	-362.37909	659.20416	877.45697	-442.7572	471.09912	916.10785	-551.69067	308.31763	920.51807	-609.46997	91.00037	960.83691	-650.99231	70.85963	1012.17065	-460.34445	34.96151	950.1759	-234.19405	665.40424	1265.83008	-150.6608	474.31848	1241.96326	-109.93859	295.59769	1271.40015	-36.80831	111.63912	1261.00928	-41.62523	43.99448	1209.07288	126.52206	120.13609	1272.91345	-328.72275	1785.927	1064.56848	NaN	NaN	NaN
53	0.52	-202.04402	1724.50354	984.91382	-209.09018	1710.82495	1128.00476	-325.76099	1638.80408	971.68842	-344.52859	1622.82019	1114.86255	-370.77313	1498.77612	1036.78406	-419.40543	1226.87805	1043.59961	-228.25772	1435.90051	1044.80078	-174.15172	1264.02869	1057.62451	-430.99863	1324.1781	1091.42358	-270.33109	1477.89172	869.97888	-223.53647	1288.97925	784.25293	-175.02335	1151.72876	771.88904	-79.88922	1067.86633	818.66797	11.99172	1035.3252	917.03131	4.87456	999.34998	873.82562	61.06514	981.38574	900.99658	-318.70203	1466.02393	1231.57825	-394.76666	1287.50549	1302.43848	-415.93188	1144.7041	1321.78308	-422.5047	1025.40857	1345.96289	-410.72989	887.74292	1331.64111	-457.9538	900.69598	1361.07434	-447.34354	826.36871	1360.35901	-213.96646	958.63043	917.58661	-201.34398	955.98248	1173.07263	-415.97394	1009.4491	1008.06879	-417.98633	1009.44678	1119.70325	-351.14417	658.48145	878.76801	-433.39963	471.29321	916.94757	-545.5929	310.69632	921.11816	-607.88385	94.30858	960.25397	-649.88812	75.49552	1011.69788	-460.24985	34.91723	949.96985	-218.28899	663.41736	1268.89746	-131.14119	473.93298	1243.97534	-90.69164	294.67627	1273.73669	-18.36639	110.48562	1262.42444	-23.53803	42.89591	1210.854	145.03932	118.63707	1273.10852	-314.23047	1783.76135	1066.5542	-2846.07471	1034.276	3357.08521
54	0.53	-188.02386	1721.89246	987.41534	-194.90343	1708.40686	1130.59766	-312.04556	1636.96057	974.4469	-330.67825	1621.06421	1117.48499	-357.5824	1496.46143	1039.38391	-405.13165	1224.27429	1046.40967	-214.82495	1433.71326	1047.24048	-160.04901	1262.02759	1060.21497	-417.67426	1321.84375	1094.49426	-257.2851	1475.68506	872.51355	-209.88318	1287.20557	786.37305	-160.11365	1150.40649	773.49377	-63.63439	1069.08679	821.97351	28.18794	1040.55554	921.6275	22.67882	1003.96661	878.54462	79.1311	988.22815	906.76666	-305.67966	1463.71252	1234.47717	-382.31491	1285.36462	1304.28027	-403.95148	1142.87976	1324.12769	-411.80389	1023.96631	1349.14612	-400.4765	886.20624	1336.61609	-448.75534	899.63361	1364.41797	-438.66275	825.28992	1364.92163	-199.42908	956.27386	919.79181	-185.2263	954.12579	1174.8667	-401.01566	1007.16455	1011.6767	-402.24774	1007.53625	1123.94543	-339.4852	657.78351	880.15607	-422.9194	471.29123	917.84247	-538.51862	313.23535	921.40112	-606.03717	98.07922	959.42828	-648.46759	80.51339	1010.70453	-460.09933	34.82438	949.75854	-199.04825	662.58997	1271.86987	-110.87363	473.508	1245.84399	-72.72099	293.4989	1275.44495	-3.58889	108.56242	1263.6521	-10.42007	41.05941	1211.77026	159.72963	114.0202	1273.08325	-299.6955	1782.05688	1069.40015	NaN	NaN	NaN
55	0.54	-174.17131	1719.87488	989.73456	-180.68285	1706.17749	1133.22241	-298.14932	1635.44263	977.25476	-316.9389	1619.46533	1120.20862	-343.90741	1494.23254	1042.11377	-390.8605	1221.90417	1049.36475	-201.24049	1432.00903	1050.01758	-145.9415	1260.50061	1062.92834	-403.74725	1319.16943	1096.48767	-244.34599	1473.74512	875.03668	-196.35176	1285.37378	788.65442	-145.80531	1149.29504	775.01416	-47.53875	1070.52747	824.75519	43.46158	1045.02551	925.46753	39.79433	1008.11401	882.6225	96.32975	994.20544	911.76172	-292.74164	1461.64819	1237.08362	-369.65866	1283.45813	1306.67578	-391.61526	1141.23999	1326.69922	-400.56143	1022.70532	1352.4917	-389.68066	884.8288	1341.74683	-438.72766	898.6745	1367.8949	-429.00443	824.32983	1369.61853	-184.43826	954.03156	922.22656	-168.58154	952.51715	1176.96863	-385.73135	1005.20245	1015.42267	-386.15405	1005.78259	1128.19202	-326.75647	657.06146	881.66809	-411.31506	471.09604	918.7583	-530.45319	315.82086	921.53302	-603.72058	102.39077	958.29865	-646.76782	86.2232	1009.4248	-459.96402	34.7774	949.51312	-177.99402	662.60889	1275.01318	-90.79101	472.827	1247.73828	-56.39854	291.93259	1276.4469	8.01749	105.58743	1263.82092	-0.33734	38.45201	1212.11096	171.07886	107.93536	1273.36365	-285.16467	1780.35266	1072.07898	-2845.99438	1034.24536	3356.85205
56	0.55	-160.03893	1717.85925	992.38757	-166.55122	1704.18103	1135.86902	-284.6604	1634.00391	979.94568	-303.28854	1618.12183	1122.9967	-330.71606	1492.37573	1044.82446	-376.34247	1219.60583	1052.35559	-187.7478	1430.40417	1052.84326	-131.785	1259.40222	1065.87646	-390.02533	1317.00879	1099.71582	-231.3183	1472.03455	877.61127	-183.11719	1284.01099	790.80237	-131.86212	1148.06177	776.71063	-32.87732	1071.71545	827.53754	58.23452	1048.97083	928.79358	56.03793	1011.64105	886.28461	112.69794	999.75409	916.2558	-279.78824	1459.82263	1239.67676	-357.00217	1282.12671	1309.91785	-378.84784	1139.71008	1329.40149	-388.66125	1021.5556	1355.92188	-378.02835	883.69238	1346.82288	-427.75815	897.82068	1371.53076	-418.3638	823.53003	1374.44299	-169.15979	951.96234	924.76263	-151.37352	951.01758	1179.29309	-369.83719	1003.35059	1019.21149	-369.84821	1004.32605	1132.44055	-313.63867	656.43695	883.7724	-398.7507	470.86182	919.68701	-521.58356	318.72116	921.7052	-600.92743	107.33878	957.26483	-644.10089	92.68082	1008.2262	-459.77484	34.74443	949.3089	-155.99545	662.93677	1278.31348	-71.50984	471.86807	1249.89502	-41.64796	289.91025	1277.38843	17.3533	101.91507	1263.60938	7.23068	35.35357	1211.70593	179.89861	100.72968	1273.64087	-270.64841	1778.62305	1075.05933	-2845.97168	1034.27881	3356.91162
57	0.56	-145.91148	1715.87671	995.1048	-152.49091	1702.26221	1138.37036	-271.09476	1632.40356	982.6524	-289.63031	1616.84192	1125.73071	-317.39496	1490.46289	1047.53833	-361.70474	1217.26843	1055.55212	-174.25327	1429.09058	1055.81177	-117.37068	1258.38892	1068.89734	-375.70218	1314.3363	1102.13025	-218.30434	1470.36426	880.315	-170.55664	1282.71875	792.92194	-118.51126	1146.97839	778.41077	-18.56778	1072.57324	829.86395	72.47611	1052.34363	931.64996	71.38696	1014.97058	889.47729	128.27614	1004.33862	919.90918	-266.90149	1458.34021	1242.56421	-343.92041	1280.60486	1312.65039	-365.65967	1138.36218	1332.31238	-376.13022	1020.55371	1359.47876	-365.85718	882.62482	1352.02905	-416.00494	897.09772	1375.33569	-406.70596	822.86627	1379.39539	-153.29495	950.08136	927.48248	-133.83928	949.94904	1181.93127	-353.59494	1001.49634	1023.16095	-353.28046	1002.79395	1136.65723	-298.90765	655.14545	886.02289	-385.44492	470.7634	920.55853	-511.99731	321.95923	921.96765	-597.5647	112.86061	956.29089	-640.91589	99.92664	1007.07501	-459.56415	34.6877	949.08514	-133.44635	663.56494	1281.79163	-53.39052	470.5976	1252.23438	-28.4591	287.13651	1278.13013	24.94509	97.71707	1262.97791	13.64421	31.06964	1210.13513	186.93506	92.52364	1273.3186	-256.29132	1777.38538	1077.36902	-2846.01685	1034.31824	3356.72705
58	0.57	-132.28011	1713.68225	997.36249	-138.54369	1700.42163	1140.88843	-257.60635	1630.88672	985.43579	-276.07413	1615.49451	1128.56079	-303.9595	1488.67456	1050.46863	-346.74194	1214.82776	1058.84534	-160.56308	1427.84766	1058.74976	-102.73817	1257.35681	1072.14465	-361.51117	1312.1228	1105.49329	-205.32701	1468.82397	883.22797	-158.37381	1281.21436	795.27344	-105.53036	1145.91223	780.10046	-4.69211	1073.11267	832.08807	86.2813	1054.57178	934.10046	86.11946	1017.11835	892.21582	143.22264	1008.38586	922.86096	-253.78624	1456.9314	1245.13623	-330.62888	1279.24451	1315.54907	-352.11914	1137.1178	1335.3761	-362.92499	1019.63464	1363.21301	-352.63721	881.74158	1357.16174	-403.22461	896.3374	1379.25684	-394.00232	822.21179	1384.34924	-136.68086	948.38123	930.45911	-115.95506	949.17487	1184.88745	-336.6619	999.48157	1027.22034	-336.30539	1001.10699	1140.78052	-283.94232	654.34503	888.28882	-371.03735	470.70813	921.44623	-501.62146	325.63742	922.40216	-593.52045	119.00191	955.22614	-636.64435	107.59259	1005.96368	-459.21655	34.68528	948.80194	-111.04173	664.12616	1284.66772	-36.57095	468.91913	1254.95703	-16.77985	283.62421	1278.70728	31.02855	93.06087	1261.64856	17.26652	28.93135	1208.94885	192.6758	83.77309	1272.34778	-242.07011	1775.94885	1079.96191	-2846.04443	1034.19849	3356.77441
59	0.58	-118.35747	1711.39368	1000.17029	-124.67053	1698.60791	1143.35608	-244.20265	1629.17041	988.29742	-262.48013	1614.21582	1131.44165	-290.61563	1486.88196	1053.65869	-331.74564	1212.24817	1062.40125	-147.09686	1426.54236	1061.91235	-87.96806	1256.73511	1075.38892	-346.6445	1309.24023	1108.16577	-192.5132	1467.22913	886.38037	-146.30417	1279.79871	797.68726	-93.07553	1144.87695	781.8017	8.65044	1073.39819	834.08636	99.62202	1056.47668	936.31244	100.65089	1019.03644	894.55426	157.28127	1010.91907	925.54449	-240.64061	1455.70374	1247.82996	-317.08401	1277.90271	1318.22473	-338.2186	1136.00928	1338.65479	-349.15878	1018.69098	1366.9541	-338.17526	881.17645	1362.52356	-389.70889	895.43231	1383.26697	-380.24429	821.60846	1389.75928	-119.57204	946.9527	933.71753	-97.86297	948.72717	1188.20691	-319.38739	997.37378	1031.50293	-319.10989	999.30121	1144.9165	-267.92923	653.33374	890.78314	-355.63831	470.65344	922.20844	-490.50378	329.5914	922.95544	-588.78833	125.70008	954.58972	-631.61646	116.35366	1005.76221	-458.91492	34.66606	948.44153	-88.91714	664.49365	1287.41296	-21.0309	466.8345	1258.07959	-6.33928	279.53827	1278.60718	36.72936	89.01672	1260.53943	20.09342	29.54808	1208.5741	198.59364	72.55862	1270.427	-228.07239	1774.39404	1082.45703	-2846.02979	1034.20825	3356.90112
